<?xml version="1.0" encoding="UTF-8" standalone="no"?>
<svg
   xmlns:dc="http://purl.org/dc/elements/1.1/"
   xmlns:cc="http://creativecommons.org/ns#"
   xmlns:rdf="http://www.w3.org/1999/02/22-rdf-syntax-ns#"
   xmlns:svg="http://www.w3.org/2000/svg"
   xmlns="http://www.w3.org/2000/svg"
   id="svg8"
   version="1.1"
   viewBox="0 0 210 297"
   height="297mm"
   width="210mm">
  <defs
     id="defs2" />
  <metadata
     id="metadata5">
    <rdf:RDF>
      <cc:Work
         rdf:about="">
        <dc:format>image/svg+xml</dc:format>
        <dc:type
           rdf:resource="http://purl.org/dc/dcmitype/StillImage" />
        <dc:title></dc:title>
      </cc:Work>
    </rdf:RDF>
  </metadata>
  <g
     id="layer1">
    <path
       id="path21"
       d="m 85.347025,213.57667 c -3.229248,-0.99658 -6.300663,-3.41855 -7.919556,-6.24498 -1.517639,-2.64965 -1.948611,-4.62108 -1.802865,-8.247 0.139835,-3.47883 0.709681,-5.38059 2.306253,-7.6967 1.18939,-1.72541 3.538519,-3.77425 5.20677,-4.54119 0.851368,-0.3914 1.834086,-0.84245 2.183818,-1.00235 0.852665,-0.38984 7.760647,-0.38689 8.253264,0.004 0.2042,0.16184 0.713944,0.37629 1.132763,0.47657 1.056699,0.253 3.495019,1.85457 4.59762,3.01986 2.818868,2.97916 4.033598,6.10047 4.033598,10.36453 0,5.16282 -2.31242,9.57993 -6.382529,12.19171 -2.382049,1.52856 -4.481401,2.09691 -7.640386,2.06848 -1.547694,-0.0139 -3.305453,-0.18775 -3.96875,-0.39245 z m 7.20454,-4.2531 c 3.878308,-1.50875 6.28626,-5.14096 6.28626,-9.48235 0,-4.0223 -2.103737,-7.59375 -5.47895,-9.30145 -1.334928,-0.67541 -1.748001,-0.75142 -4.02218,-0.7401 -2.085242,0.0104 -2.765157,0.1216 -3.836029,0.62751 -3.332237,1.57424 -5.442138,5.11692 -5.461537,9.17032 -0.01609,3.36266 1.154721,5.90926 3.754874,8.16711 0.635881,0.55217 1.691928,1.21537 2.346772,1.47378 1.5934,0.62878 4.900488,0.67272 6.41079,0.0852 z m 77.440385,4.18934 c -2.57931,-0.94146 -4.18302,-2.92553 -4.74043,-5.86478 -0.1457,-0.76826 -0.26491,-4.95247 -0.26491,-9.29823 v -7.90139 h -1.6874 c -2.1389,0 -2.32957,-0.21874 -2.22784,-2.55587 l 0.0788,-1.80975 1.85208,-0.13229 1.85209,-0.13229 0.13229,-3.3073 0.13229,-3.30729 2.18281,-0.0768 2.18282,-0.0768 0.004,3.11956 c 0.002,1.71575 0.0963,3.26475 0.20907,3.44221 0.14058,0.22125 1.32432,0.34599 3.76626,0.39688 l 3.56125,0.0742 0.0769,1.8769 c 0.0547,1.33418 -0.0268,1.96297 -0.28172,2.17455 -0.21333,0.17704 -1.74531,0.32778 -3.78107,0.37205 l -3.42244,0.0744 -0.0733,7.9375 c -0.0849,9.19377 0.0191,9.8106 1.80716,10.72281 1.98229,1.01129 4.16376,0.43531 5.279,-1.39383 0.45452,-0.74547 0.5259,-1.33666 0.52675,-4.36301 0.001,-4.01561 -0.0949,-3.88122 2.66097,-3.72483 l 1.44106,0.0818 0.0783,3.96875 c 0.0431,2.18282 0.0111,4.33859 -0.071,4.79062 -0.21548,1.1861 -1.65086,3.22522 -2.75836,3.91855 -2.35891,1.47677 -6.02123,1.90417 -8.51548,0.99377 z m -55.34214,0.0366 c -0.25456,-0.0665 -0.53887,-0.43967 -0.63179,-0.8292 -0.0929,-0.38954 -0.25785,-0.82731 -0.36651,-0.97283 -0.10865,-0.14552 -0.28596,-0.67739 -0.39403,-1.18194 -0.10807,-0.50454 -0.29406,-1.09986 -0.41331,-1.32291 -0.11926,-0.22306 -0.41028,-1.06041 -0.64671,-1.86077 -0.23644,-0.80037 -0.53347,-1.69334 -0.66008,-1.98438 -0.12661,-0.29104 -0.77646,-2.19604 -1.44412,-4.23333 -0.66766,-2.03729 -1.32188,-3.94229 -1.45382,-4.23333 -0.13194,-0.29105 -0.65154,-1.83886 -1.15467,-3.43959 l -0.91477,-2.91041 -1.49506,-0.0797 c -1.31868,-0.0703 -1.5249,-0.15817 -1.74795,-0.74483 -0.28508,-0.74982 -0.3263,-2.31406 -0.0847,-3.21564 l 0.16092,-0.60058 5.45787,0.0714 5.45786,0.0714 0.0788,1.80975 c 0.0953,2.18832 -0.14678,2.55587 -1.68306,2.55587 -0.62844,0 -1.20452,0.10017 -1.28018,0.2226 -0.0757,0.12242 0.0853,0.86656 0.35759,1.65364 0.27235,0.78708 0.75502,2.32403 1.07262,3.41543 0.3176,1.09141 0.79277,2.63922 1.05593,3.43958 0.87363,2.65703 1.58895,5.11182 1.58895,5.45291 0,0.51915 0.50931,0.71378 0.93763,0.35831 0.21191,-0.17587 0.38528,-0.54492 0.38528,-0.82012 0,-0.2752 0.11418,-0.7071 0.25373,-0.95979 0.13956,-0.25269 1.27361,-3.55506 2.52013,-7.3386 1.24652,-3.78354 2.37435,-7.07287 2.5063,-7.30961 0.13194,-0.23675 0.32143,-0.86505 0.42108,-1.39623 0.20998,-1.11934 0.74314,-1.48395 2.15272,-1.4722 1.34936,0.0113 1.75357,0.38272 2.29402,2.10825 0.25068,0.80037 0.56305,1.69333 0.69416,1.98438 0.13111,0.29104 0.83715,2.3151 1.56897,4.49791 2.35373,7.02052 3.65826,10.73361 3.83217,10.90751 0.36514,0.36514 0.90687,-0.87841 1.87013,-4.29292 0.24632,-0.87313 0.55088,-1.82563 0.67681,-2.11667 0.12593,-0.29104 0.31057,-0.94198 0.41031,-1.44652 0.0997,-0.50455 0.27537,-1.09986 0.3903,-1.32292 0.11492,-0.22306 0.40442,-1.11994 0.64332,-1.99306 0.23891,-0.87313 0.54646,-1.79424 0.68345,-2.04693 0.13699,-0.25269 0.24907,-0.69917 0.24907,-0.99219 0,-0.44331 -0.17406,-0.53276 -1.03669,-0.53276 -1.80912,0 -1.87373,-0.0831 -1.87373,-2.40955 v -2.08836 h 5.39565 c 6.07914,0 5.71685,-0.13661 5.71685,2.1557 0,2.01094 -0.28053,2.34221 -1.98343,2.34221 h -1.43565 l -0.39311,1.25678 c -1.87704,6.00088 -7.3282,21.61687 -7.60778,21.79408 -0.45852,0.29063 -2.63081,0.29056 -3.08937,-9e-5 -0.33457,-0.21207 -0.96982,-1.96702 -4.84807,-13.39347 -1.55154,-4.5713 -1.91689,-5.42396 -2.32411,-5.42396 -0.10201,0 -0.62938,1.33945 -1.17195,2.97656 -0.54256,1.63711 -1.09049,3.21469 -1.21764,3.50573 -0.12714,0.29104 -0.7843,2.19604 -1.46035,4.23333 -0.67605,2.03729 -1.29979,3.88276 -1.3861,4.10104 -0.0863,0.21829 -0.41652,1.16275 -0.73381,2.0988 -0.36146,1.06636 -0.76514,1.77576 -1.08099,1.89963 -0.55047,0.2159 -2.08459,0.2445 -2.81902,0.0526 z m -101.214434,-2.13276 0.07728,-2.05052 1.316199,-0.0831 c 0.723909,-0.0457 1.46805,-0.20909 1.653646,-0.36312 0.26482,-0.21978 0.336575,-2.93526 0.333395,-12.61693 -0.0022,-6.78528 -0.09412,-12.47854 -0.204212,-12.65169 -0.110089,-0.17314 -0.852407,-0.35173 -1.649595,-0.39687 l -1.449433,-0.0821 -0.07728,-2.05052 -0.07728,-2.05052 h 3.847587 3.847588 v 10.43543 c 0,7.65896 0.08204,10.48613 0.308348,10.62599 0.191799,0.11854 2.916985,-2.47288 7.209895,-6.856 3.796795,-3.87658 7.23662,-7.169 7.646377,-7.31871 0.884657,-0.32321 4.664173,-0.35743 5.154057,-0.0467 0.244869,0.15534 0.320365,0.81476 0.264583,2.31105 l -0.07805,2.09369 -2.248958,0.0751 -2.248958,0.0751 -3.770313,3.75795 c -2.073672,2.06687 -3.768411,3.93808 -3.766086,4.15824 0.0023,0.22017 0.329746,0.77925 0.727604,1.24241 0.397858,0.46317 1.914003,2.35582 3.369211,4.20589 4.50706,5.73004 4.128895,5.40304 6.248495,5.40304 h 1.821297 v 2.11667 2.11666 h -2.891518 c -2.09809,0 -2.987455,-0.0992 -3.241146,-0.36163 -0.192295,-0.1989 -1.242597,-1.46524 -2.334003,-2.81408 -4.829702,-5.96892 -6.923366,-8.46595 -7.09838,-8.46595 -0.103462,0 -1.294897,1.1114 -2.647633,2.46979 -2.43212,2.44227 -2.458591,2.4828 -2.376025,3.63802 l 0.0835,1.16823 1.316198,0.0831 c 0.72391,0.0457 1.46805,0.20909 1.653646,0.36313 0.347594,0.28847 0.471131,2.73402 0.176848,3.50091 -0.139195,0.36274 -0.881178,0.41851 -5.567379,0.41851 h -5.40678 z m 31.278296,1.69742 c -0.07685,-0.20025 -0.103822,-1.12546 -0.05995,-2.05601 l 0.07976,-1.69193 1.5875,-0.13229 1.5875,-0.13229 0.06953,-9.32656 0.06953,-9.32657 h -1.275733 c -1.942227,0 -2.212716,-0.32181 -2.117929,-2.51982 l 0.0796,-1.8458 3.770312,-0.0734 3.770313,-0.0734 v 0.91769 c 0,0.50473 0.102312,0.98092 0.227362,1.05821 0.125047,0.0773 0.690594,-0.21003 1.25677,-0.63848 0.566174,-0.42845 1.148472,-0.78305 1.293993,-0.78799 0.145521,-0.005 0.621771,-0.21211 1.058333,-0.46037 0.637074,-0.36228 1.498791,-0.45335 4.365625,-0.46139 3.639873,-0.0102 3.786674,0.0191 6.32646,1.26465 1.222132,0.59933 2.872023,2.48836 3.759859,4.30482 l 0.893889,1.82885 0.07169,7.54062 c 0.03943,4.14735 0.129509,7.8026 0.200179,8.12279 0.111461,0.50501 0.32988,0.59267 1.648105,0.66145 l 1.519613,0.0793 v 1.98438 1.98437 l -5.357812,0.0716 -5.357812,0.0716 v -2.12214 -2.12215 h 1.609304 1.609302 l -0.103744,-7.34219 c -0.09946,-7.03939 -0.128894,-7.39128 -0.713605,-8.53281 -1.11267,-2.17226 -2.415198,-3.16791 -4.860088,-3.71505 -2.790537,-0.62449 -6.255205,0.70969 -7.82492,3.01324 -1.466321,2.15182 -1.650481,3.35422 -1.566336,10.22681 l 0.07613,6.21771 1.058333,0.0705 c 2.317046,0.1544 2.280952,0.11735 2.194245,2.25249 l -0.07758,1.91032 -5.364006,0.0717 c -4.358322,0.0582 -5.390202,0.003 -5.503722,-0.29246 z m 102.177288,-0.0654 c -0.28161,-0.73387 -0.17241,-3.16801 0.1569,-3.49732 0.19884,-0.19884 1.18769,-0.3175 2.64583,-0.3175 h 2.32834 v -9.39271 -9.39271 h -1.29052 c -1.69941,0 -1.92832,-0.31953 -1.83097,-2.55587 l 0.0788,-1.80975 h 3.70416 3.70417 l 0.13229,11.50937 0.13229,11.50938 1.3162,0.0831 c 0.72391,0.0457 1.46805,0.20909 1.65365,0.36313 0.34759,0.28847 0.47113,2.73402 0.17685,3.50091 -0.14022,0.3654 -0.95932,0.41851 -6.45399,0.41851 -5.49466,0 -6.31376,-0.0531 -6.45398,-0.41851 z m 6.27581,-31.47785 c -1.17646,-0.51532 -1.67391,-1.34725 -1.67391,-2.7994 0,-1.06046 0.11818,-1.33997 0.81414,-1.92558 1.05438,-0.88721 1.91489,-1.08882 2.90203,-0.67993 2.44434,1.01248 2.43981,4.40709 -0.007,5.38619 -0.59062,0.23632 -1.10121,0.41996 -1.13464,0.40809 -0.0334,-0.0119 -0.43863,-0.18709 -0.90043,-0.38937 z"
       style="fill:#000000;stroke-width:0.26458332" />
  </g>
</svg>
